HIERARCHY
ROOT Hips
{
    OFFSET   0.000000   0.000000   0.000000
    CHANNELS 6 Xposition Yposition Zposition Zrotation Xrotation Yrotation
    JOINT Chest
    {
        OFFSET   0.000000   8.007230   0.000000
        CHANNELS 3 Zrotation Xrotation Yrotation
        JOINT Chest2
        {
            OFFSET   0.000000  22.077100   0.000000
            CHANNELS 3 Zrotation Xrotation Yrotation
            JOINT Neck
            {
                OFFSET   0.000000  23.254800  -0.000021
                CHANNELS 3 Zrotation Xrotation Yrotation
                JOINT Head
                {
                    OFFSET   0.000000  14.370000   1.956610
                    CHANNELS 3 Zrotation Xrotation Yrotation
                    End Site
                    {
                        OFFSET   0.000000  19.566000   0.000000
                    }
                }
            }
            JOINT LeftCollar
            {
                OFFSET   3.911900  19.017000  -0.467063
                CHANNELS 3 Zrotation Xrotation Yrotation
                JOINT LeftShoulder
                {
                    OFFSET  10.383700   0.000000   0.000000
                    CHANNELS 3 Zrotation Xrotation Yrotation
                    JOINT LeftElbow
                    {
                        OFFSET  26.662100   0.001529   0.000325
                        CHANNELS 3 Zrotation Xrotation Yrotation
                        JOINT LeftWrist
                        {
                            OFFSET  28.869000  -0.000011  -0.000096
                            CHANNELS 3 Zrotation Xrotation Yrotation
                            JOINT LeftFinger0
                            {
                                OFFSET   2.044650  -2.323460   3.252850
                                CHANNELS 3 Zrotation Xrotation Yrotation
                                JOINT LeftFinger01
                                {
                                    OFFSET   3.088130   0.000000   0.000000
                                    CHANNELS 3 Zrotation Xrotation Yrotation
                                    JOINT LeftFinger02
                                    {
                                        OFFSET   2.639460   0.000000   0.000000
                                        CHANNELS 3 Zrotation Xrotation Yrotation
                                        End Site
                                        {
                                            OFFSET   2.582190   0.000000   0.000000
                                        }
                                    }
                                }
                            }
                            JOINT LeftFinger1
                            {
                                OFFSET   8.364480   0.000000   3.252850
                                CHANNELS 3 Zrotation Xrotation Yrotation
                                JOINT LeftFinger11
                                {
                                    OFFSET   4.646930   0.000000   0.000000
                                    CHANNELS 3 Zrotation Xrotation Yrotation
                                    JOINT LeftFinger12
                                    {
                                        OFFSET   2.323460   0.000000   0.000000
                                        CHANNELS 3 Zrotation Xrotation Yrotation
                                        End Site
                                        {
                                            OFFSET   2.273050   0.000000   0.000000
                                        }
                                    }
                                }
                            }
                            JOINT LeftFinger2
                            {
                                OFFSET   8.364480   0.000016   1.078090
                                CHANNELS 3 Zrotation Xrotation Yrotation
                                JOINT LeftFinger21
                                {
                                    OFFSET   5.111620   0.000000   0.000000
                                    CHANNELS 3 Zrotation Xrotation Yrotation
                                    JOINT LeftFinger22
                                    {
                                        OFFSET   2.788160   0.000017   0.000000
                                        CHANNELS 3 Zrotation Xrotation Yrotation
                                        End Site
                                        {
                                            OFFSET   2.727660   0.000000   0.000000
                                        }
                                    }
                                }
                            }
                            JOINT LeftFinger3
                            {
                                OFFSET   7.899780   0.000015  -1.078090
                                CHANNELS 3 Zrotation Xrotation Yrotation
                                JOINT LeftFinger31
                                {
                                    OFFSET   4.646920   0.000000   0.000000
                                    CHANNELS 3 Zrotation Xrotation Yrotation
                                    JOINT LeftFinger32
                                    {
                                        OFFSET   2.323470   0.000000   0.000000
                                        CHANNELS 3 Zrotation Xrotation Yrotation
                                        End Site
                                        {
                                            OFFSET   2.273050   0.000000   0.000000
                                        }
                                    }
                                }
                            }
                            JOINT LeftFinger4
                            {
                                OFFSET   7.435090   0.000000  -3.252850
                                CHANNELS 3 Zrotation Xrotation Yrotation
                                JOINT LeftFinger41
                                {
                                    OFFSET   3.717550   0.000000   0.000000
                                    CHANNELS 3 Zrotation Xrotation Yrotation
                                    JOINT LeftFinger42
                                    {
                                        OFFSET   1.858760   0.000000   0.000000
                                        CHANNELS 3 Zrotation Xrotation Yrotation
                                        End Site
                                        {
                                            OFFSET   1.818440   0.000000   0.000000
                                        }
                                    }
                                }
                            }
                        }
                    }
                }
            }
            JOINT RightCollar
            {
                OFFSET  -3.911900  19.017000  -0.467062
                CHANNELS 3 Zrotation Xrotation Yrotation
                JOINT RightShoulder
                {
                    OFFSET -10.383700   0.000015   0.000000
                    CHANNELS 3 Zrotation Xrotation Yrotation
                    JOINT RightElbow
                    {
                        OFFSET -26.662100   0.001341   0.000385
                        CHANNELS 3 Zrotation Xrotation Yrotation
                        JOINT RightWrist
                        {
                            OFFSET -28.869000   0.000025  -0.000080
                            CHANNELS 3 Zrotation Xrotation Yrotation
                            JOINT RightFinger0
                            {
                                OFFSET  -2.044650  -2.323490   3.252850
                                CHANNELS 3 Zrotation Xrotation Yrotation
                                JOINT RightFinger01
                                {
                                    OFFSET  -3.088130   0.000000   0.000000
                                    CHANNELS 3 Zrotation Xrotation Yrotation
                                    JOINT RightFinger02
                                    {
                                        OFFSET  -2.639460   0.000000   0.000000
                                        CHANNELS 3 Zrotation Xrotation Yrotation
                                        End Site
                                        {
                                            OFFSET  -2.582190   0.000000   0.000000
                                        }
                                    }
                                }
                            }
                            JOINT RightFinger1
                            {
                                OFFSET  -8.364480   0.000000   3.252850
                                CHANNELS 3 Zrotation Xrotation Yrotation
                                JOINT RightFinger11
                                {
                                    OFFSET  -4.646930   0.000000   0.000000
                                    CHANNELS 3 Zrotation Xrotation Yrotation
                                    JOINT RightFinger12
                                    {
                                        OFFSET  -2.323470   0.000000   0.000000
                                        CHANNELS 3 Zrotation Xrotation Yrotation
                                        End Site
                                        {
                                            OFFSET  -2.273050   0.000000   0.000000
                                        }
                                    }
                                }
                            }
                            JOINT RightFinger2
                            {
                                OFFSET  -8.364480   0.000000   1.078090
                                CHANNELS 3 Zrotation Xrotation Yrotation
                                JOINT RightFinger21
                                {
                                    OFFSET  -5.111610   0.000000   0.000000
                                    CHANNELS 3 Zrotation Xrotation Yrotation
                                    JOINT RightFinger22
                                    {
                                        OFFSET  -2.788160   0.000000   0.000000
                                        CHANNELS 3 Zrotation Xrotation Yrotation
                                        End Site
                                        {
                                            OFFSET  -2.727660   0.000000   0.000000
                                        }
                                    }
                                }
                            }
                            JOINT RightFinger3
                            {
                                OFFSET  -7.899780   0.000000  -1.078090
                                CHANNELS 3 Zrotation Xrotation Yrotation
                                JOINT RightFinger31
                                {
                                    OFFSET  -4.646920   0.000000   0.000000
                                    CHANNELS 3 Zrotation Xrotation Yrotation
                                    JOINT RightFinger32
                                    {
                                        OFFSET  -2.323470   0.000000   0.000000
                                        CHANNELS 3 Zrotation Xrotation Yrotation
                                        End Site
                                        {
                                            OFFSET  -2.273050   0.000000   0.000000
                                        }
                                    }
                                }
                            }
                            JOINT RightFinger4
                            {
                                OFFSET  -7.435090   0.000000  -3.252850
                                CHANNELS 3 Zrotation Xrotation Yrotation
                                JOINT RightFinger41
                                {
                                    OFFSET  -3.717550   0.000000   0.000000
                                    CHANNELS 3 Zrotation Xrotation Yrotation
                                    JOINT RightFinger42
                                    {
                                        OFFSET  -1.858770   0.000000   0.000000
                                        CHANNELS 3 Zrotation Xrotation Yrotation
                                        End Site
                                        {
                                            OFFSET  -1.818440   0.000000   0.000000
                                        }
                                    }
                                }
                            }
                        }
                    }
                }
            }
        }
    }
    JOINT LeftHip
    {
        OFFSET   9.783010   0.000000   0.000000
        CHANNELS 3 Zrotation Xrotation Yrotation
        JOINT LeftKnee
        {
            OFFSET   0.000070 -41.789100   0.000028
            CHANNELS 3 Zrotation Xrotation Yrotation
            JOINT LeftAnkle
            {
                OFFSET   0.000087 -41.133200  -0.000100
                CHANNELS 3 Zrotation Xrotation Yrotation
                JOINT LeftToe
                {
                    OFFSET   0.000000  -6.358960  14.674500
                    CHANNELS 3 Zrotation Xrotation Yrotation
                    End Site
                    {
                        OFFSET   0.000000   0.000000   3.913200
                    }
                }
            }
        }
    }
    JOINT RightHip
    {
        OFFSET  -9.783020   0.000000   0.000000
        CHANNELS 3 Zrotation Xrotation Yrotation
        JOINT RightKnee
        {
            OFFSET   0.000044 -41.789100  -0.000870
            CHANNELS 3 Zrotation Xrotation Yrotation
            JOINT RightAnkle
            {
                OFFSET  -0.000090 -41.133200  -0.000245
                CHANNELS 3 Zrotation Xrotation Yrotation
                JOINT RightToe
                {
                    OFFSET   0.000000  -6.358960  14.674500
                    CHANNELS 3 Zrotation Xrotation Yrotation
                    End Site
                    {
                        OFFSET   0.000000   0.000000   3.913200
                    }
                }
            }
        }
    }
}
MOTION
Frames: 4
Frame Time:   0.016667
 -9.139180  88.548800  -0.444256   0.128554 -10.311200  -0.008107   0.854119   6.096840  -0.602527   1.789000  12.183600  -1.308260   0.106812  -1.009520   0.001513   0.175747  -2.047490   2.079570   0.653730   3.627940   9.187890 -79.880300  -9.760110 -24.545900   1.383840  -4.571410 -121.305000  45.031400  25.369700 -20.397300  47.293700  39.955600 -81.860500   2.978450  -0.003013   0.000279   6.489240  -0.001654   0.000825  -6.444390  -0.184053   1.630570  -5.274590   0.003371  -0.003269  -3.692210   0.002748  -0.005317  -5.040030  -0.692555   7.811560  -5.086680   0.004916  -0.000257  -3.387720   0.003385   0.001127   8.570740   2.124240  13.803800  -0.000000  -0.000558  -0.001943   0.000000   0.007149  -0.000235   8.228560   3.742280  24.274500   0.000000   0.000000  -0.002787  -0.000000  -0.000770  -0.001545   0.947211   5.023380   3.483590  79.383400 -16.089000  32.463200  -9.533230 -14.567800 109.639000 -58.006000  35.885300  34.031300 -42.342800  41.340000  85.157600 -17.826000   0.010685   0.000000 -13.910900   0.002819  -0.012012   1.954550   0.218220   6.365230   1.609080  -0.001019  -0.002670   1.126360  -0.000519  -0.003651  -0.990370   0.040159  -2.313790   0.000000   0.006586  -0.001408  -0.003065   0.001655  -0.000926  -8.171510   2.181370 -14.844200   0.000029   0.001569  -0.001285   0.000000   0.000549  -0.000874   3.312280  -2.448000 -36.427900   6.176760   0.001459  -0.003034   4.113720   0.000458  -0.002261   6.679090   5.718290  -2.464830   1.432290  15.356900  12.509800  -8.734180  -8.578230  -1.843590  -0.000000   0.000000   0.000000   3.392360  13.676400  -7.088520   3.102950   0.390711 -14.107400  -3.143670  -5.412430   3.007840   0.000000   0.000000   0.000000
 -9.241080  88.534000  -0.475037   0.110199 -10.357200   0.060681   0.854955   6.103900  -0.596520   1.789560  12.197800  -1.296310   0.149870  -0.975744   0.001269   0.246400  -1.978950   3.274580   0.633690   3.560410   9.247930 -79.855000  -9.668480 -24.525300   1.413630  -4.622010 -121.174000  44.986000  25.414700 -20.449500  47.167200  39.877800 -81.758000   2.719740  -0.002993   0.000336   6.359890  -0.001615   0.000827  -6.503000  -0.201600   1.767690  -5.322860   0.003336  -0.003260  -3.726010   0.002673  -0.005353  -5.061810  -0.703498   7.896350  -5.109540   0.004929  -0.000198  -3.402960   0.003398   0.001184   8.566440   2.133000  13.875000  -0.000000  -0.000478  -0.001927   0.000000   0.007246  -0.000184   8.265610   3.771760  24.358700   0.000000   0.000000  -0.002823  -0.000000  -0.000666  -0.001562   0.983184   5.009360   3.543410  79.541100 -16.201600  32.534000  -9.574950 -14.727700 109.598000 -57.859200  35.850300  33.886600 -42.331400  41.359600  85.186100 -17.820700   0.010811   0.000000 -13.908900   0.002864  -0.012178   2.038290   0.226625   6.342180   1.677900  -0.000998  -0.002727   1.174540  -0.000545  -0.003704  -0.814988   0.033399  -2.347210   0.000000   0.006673  -0.001494  -0.003070   0.001708  -0.000971  -8.020190   2.141350 -14.850000   0.000058   0.001525  -0.001343   0.000000   0.000560  -0.000900   3.362590  -2.481440 -36.386700   6.267170   0.001497  -0.003127   4.173930   0.000478  -0.002327   6.749780   5.602980  -2.484230   1.489470  15.614400  12.262500  -8.814420  -8.633510  -1.681720   0.000000   0.000000   0.000000   3.474100  13.692500  -7.063240   3.114500   0.422345 -14.173100  -3.145620  -5.445530   2.977590  -0.000000   0.000000   0.000000
 -9.339750  88.516200  -0.500440   0.100727 -10.400400   0.159801   0.851084   6.108140  -0.583251   1.780100  12.206600  -1.269200   0.187493  -0.944997   0.001027   0.306541  -1.916310   4.192290   0.612455   3.485170   9.284110 -79.793200  -9.553210 -24.507500   1.427910  -4.706340 -121.033000  44.951900  25.567700 -20.427800  47.238700  39.883300 -81.740100   2.370900  -0.002960   0.000509   6.185470  -0.001578   0.000839  -6.586390  -0.224272   1.936670  -5.391910   0.003304  -0.003251  -3.774330   0.002598  -0.005378  -5.156000  -0.731513   8.054420  -5.206850   0.004935  -0.000136  -3.467760   0.003398   0.001245   8.305420   2.071070  13.908500  -0.000000  -0.000398  -0.001911   0.000000   0.007335  -0.000130   8.214110   3.755400  24.416700  -0.000000   0.000000  -0.002854  -0.000000  -0.000552  -0.001575   1.035960   5.002850   3.555320  79.694000 -16.287400  32.577300  -9.638420 -14.905600 109.579000 -57.690800  35.799000  33.723800 -42.286900  41.329500  85.153200 -17.816600   0.010918  -0.000000 -13.907200   0.002908  -0.012336   2.118460   0.235916   6.352870   1.743890  -0.000980  -0.002799   1.220740  -0.000572  -0.003753  -0.646785   0.026666  -2.346420   0.000000   0.006771  -0.001573  -0.003072   0.001771  -0.001024  -7.838050   2.093040 -14.856800   0.000029   0.001499  -0.001390   0.000000   0.000577  -0.000930   3.415580  -2.512310 -36.296500   6.358500   0.001523  -0.003219   4.234760   0.000506  -0.002392   6.803920   5.501150  -2.491610   1.558070  15.832700  12.022600  -8.887090  -8.682290  -1.571440  -0.000000   0.000000   0.000000   3.555940  13.725000  -7.064960   3.124730   0.426862 -14.237200  -3.145020  -5.483180   2.934960  -0.000000   0.000000   0.000000
 -9.431830  88.501500  -0.523514   0.098671 -10.423100   0.285295   0.843512   6.110130  -0.567555   1.763430  12.210800  -1.236750   0.206529  -0.919774   0.000782   0.339237  -1.865170   4.735800   0.589073   3.417400   9.310320 -79.736600  -9.451380 -24.485300   1.441210  -4.787500 -120.890000  44.888600  25.696500 -20.365800  47.337300  39.888800 -81.722300   2.117740  -0.002925   0.000720   6.058880  -0.001546   0.000852  -6.664050  -0.238899   2.044860  -5.456010   0.003268  -0.003244  -3.819190   0.002522  -0.005398  -5.249110  -0.759096   8.207670  -5.303260   0.004941  -0.000072  -3.531960   0.003397   0.001309   7.929050   1.980840  13.929100  -0.000000  -0.000320  -0.001897   0.000000   0.007418  -0.000078   8.119510   3.721840  24.462000   0.000000   0.000000  -0.002882  -0.000000  -0.000439  -0.001585   1.092100   5.001290   3.557020  79.823200 -16.355000  32.598800  -9.703280 -15.060300 109.570000 -57.532600  35.758000  33.574900 -42.242400  41.299400  85.120400 -17.811500   0.011024  -0.000000 -13.905700   0.002955  -0.012492   2.200720   0.247027   6.399890   1.811740  -0.000962  -0.002875   1.268240  -0.000597  -0.003802  -0.476341   0.019602  -2.340890   0.000000   0.006872  -0.001650  -0.003073   0.001834  -0.001078  -7.628990   2.037520 -14.864400   0.000000   0.001478  -0.001437   0.000000   0.000599  -0.000964   3.476450  -2.544870 -36.165000   6.460920   0.001548  -0.003312   4.302980   0.000532  -0.002455   6.848870   5.393460  -2.501830   1.616840  16.027600  11.823700  -8.949880  -8.728630  -1.524530   0.000000   0.000000   0.000000   3.629910  13.746500  -7.066340   3.135550   0.427415 -14.294700  -3.145970  -5.515730   2.864000  -0.000000   0.000000  -0.000000
